<?xml version="1.0" encoding="UTF-8"?>
<svg xmlns="http://www.w3.org/2000/svg" width="64" height="64" viewBox="0 0 64 64">
  <defs>
    <linearGradient id="gold" x1="0%" y1="0%" x2="0%" y2="100%">
      <stop offset="0%" style="stop-color:#E5C88F;stop-opacity:1" />
      <stop offset="50%" style="stop-color:#C9A961;stop-opacity:1" />
      <stop offset="100%" style="stop-color:#B8944A;stop-opacity:1" />
    </linearGradient>
  </defs>
  
  <!-- Shield background -->
  <path d="M 10 8 L 32 4 L 54 8 L 54 38 Q 54 52 32 58 Q 10 52 10 38 Z" 
        fill="#1a1a1a" 
        stroke="url(#gold)" 
        stroke-width="3"/>
  
  <!-- Bridge icon -->
  <g transform="translate(32, 36)">
    <!-- Towers -->
    <rect x="-10" y="-18" width="3" height="20" fill="#C9A961"/>
    <rect x="7" y="-18" width="3" height="20" fill="#C9A961"/>
    
    <!-- Cables -->
    <path d="M -10 -18 Q 0 -10 10 -18" stroke="#C9A961" stroke-width="1.5" fill="none"/>
    <path d="M -10 -12 Q 0 -6 10 -12" stroke="#C9A961" stroke-width="1.2" fill="none"/>
    <path d="M -10 -6 Q 0 -2 10 -6" stroke="#C9A961" stroke-width="1" fill="none"/>
    
    <!-- Deck -->
    <rect x="-12" y="2" width="24" height="2" fill="#C9A961"/>
    
    <!-- Lock -->
    <rect x="-4" y="-4" width="8" height="8" rx="1" fill="#C9A961"/>
    <circle cx="0" cy="-8" r="3.5" stroke="#C9A961" stroke-width="2" fill="none"/>
  </g>
</svg>
